<svg xmlns="http://www.w3.org/2000/svg" width="255.589" height="291.09" viewBox="0 0 255.589 291.09"><defs><style>.a{fill:#211715;}</style></defs><path class="a" d="M168.178,20.818C163.1,10.686,151.749,3.875,140.925,1.578a76.872,76.872,0,0,0-31.754.162c-5.1,1.108-10.282,2.9-14.309,6.329a2.421,2.421,0,0,0,0,3.394,2.45,2.45,0,0,0,3.394,0,12.824,12.824,0,0,1,1.845-1.309,24.818,24.818,0,0,1,2.777-1.45,38.577,38.577,0,0,1,6.049-1.983A67.279,67.279,0,0,1,123.59,4.908c9.641-.222,19.1.945,27.64,5.74,5.307,2.98,10.045,7.087,12.8,12.592,1.384,2.762,5.526.334,4.144-2.422Z"/><path class="a" d="M66.624,86.606C63.21,77.13,63.2,66.364,64.412,56.479c1.2-9.8,4.535-19.521,10.62-27.39A34.473,34.473,0,0,1,87.664,18.746a2.42,2.42,0,0,0,.861-3.283,2.455,2.455,0,0,0-3.284-.861c-9.931,4.612-16.909,13.98-21.06,23.863-4.217,10.036-5.591,21.272-5.156,32.1A58.118,58.118,0,0,0,62,87.882a2.462,2.462,0,0,0,2.953,1.676,2.42,2.42,0,0,0,1.676-2.952Z"/><path class="a" d="M172.662,30.975c6.644,3.7,10.882,10,13.742,16.9A59.135,59.135,0,0,1,190.413,71.3a63.981,63.981,0,0,1-1.876,14.935c-.759,3,3.869,4.273,4.628,1.276a73.084,73.084,0,0,0,1.185-28.6A52.354,52.354,0,0,0,185.893,36.8a32.632,32.632,0,0,0-10.808-9.966c-2.7-1.506-5.124,2.639-2.423,4.145Z"/><path class="a" d="M146.361,52.149a120.565,120.565,0,0,1-15.213,9.131,69.563,69.563,0,0,1-7.236,3.25c-1.053.391-2.121.749-3.208,1.033-.5.131-1.006.234-1.514.335-.108.019-.216.037-.325.053.256-.033.3-.039.122-.02-.281.076-.881-.094-.083.12l1.059.617c.273.238.453,1.054.365.458-.041-.274-.107-.546-.146-.821.049.347-.008-.111-.012-.15-.021-.2-.042-.394-.061-.591-.052-.546-.095-1.093-.135-1.641-.142-1.953.058-4.212-.489-6.1a4.354,4.354,0,0,0-5.263-3.054,9.1,9.1,0,0,0-2.76,1.848q-1.172.922-2.321,1.873c-6.96,5.734-13.52,11.949-20.063,18.148C85.624,79.912,82.186,83.2,78.7,86.444c-2.265,2.11,1.135,5.5,3.394,3.394,9.945-9.26,19.552-18.925,30.019-27.607q.892-.741,1.8-1.467a10.418,10.418,0,0,0,1.516-1.2c.365-.443.181-.039-.279-.2-.561-.2-.383-.146-.275-.267a7.927,7.927,0,0,0,.124,2c.136,2.46.013,5.364.822,7.717.993,2.886,4.44,1.875,6.66,1.246A54.085,54.085,0,0,0,130.322,67a116.243,116.243,0,0,0,18.461-10.708,2.464,2.464,0,0,0,.861-3.283,2.419,2.419,0,0,0-3.283-.861Z"/><path class="a" d="M156.909,59.932c6.071,2.661,11.2,7.8,15.1,13.063a41.7,41.7,0,0,1,8.028,20.37,2.469,2.469,0,0,0,2.4,2.4,2.416,2.416,0,0,0,2.4-2.4,46.241,46.241,0,0,0-8.683-22.793c-4.387-5.894-9.99-11.79-16.822-14.785a2.479,2.479,0,0,0-3.284.861,2.419,2.419,0,0,0,.861,3.284Z"/><path class="a" d="M176.978,136.489c3.468-5.766,6.222-12.323,6.427-19.151a2.4,2.4,0,0,0-4.8,0,32.713,32.713,0,0,1-1.992,9.134c-.144.431-.284.863-.44,1.289-.091.246-.123.3,0,.024-.055.126-.11.252-.167.378q-.213.475-.442.943c-.824,1.7-1.754,3.344-2.727,4.961-1.6,2.653,2.553,5.069,4.145,2.422Z"/><path class="a" d="M74.28,88.323a10.759,10.759,0,0,0-11.635-1.665c-4.046,1.885-5.5,5.824-5.815,10.014-.62,8.357,1.955,17.833,7.7,24.1,3.057,3.333,7.234,5.619,11.835,4.608,3.016-.663,1.74-5.292-1.276-4.629-3.259.717-6.273-2.083-8.09-4.468a28.31,28.31,0,0,1-4.9-11.549,29.547,29.547,0,0,1-.545-6.267c.03-1.839.059-3.97,1.027-5.594,1.678-2.818,5.895-3.212,8.308-1.151a2.463,2.463,0,0,0,3.394,0,2.421,2.421,0,0,0,0-3.394Z"/><path class="a" d="M71.655,110.628c1.146,9.369,3.374,18.486,7.878,26.851,1.465,2.721,5.61.3,4.145-2.422-4.067-7.554-6.214-16.175-7.223-24.429a2.475,2.475,0,0,0-2.4-2.4,2.415,2.415,0,0,0-2.4,2.4Z"/><path class="a" d="M184.681,91.715a5.717,5.717,0,0,1,8.221,1c1.076,1.6,1.087,3.894,1.117,5.746a30.142,30.142,0,0,1-5.206,17.487,10.019,10.019,0,0,1-3.625,3.453,12.175,12.175,0,0,1-4.934.755c-3.089,0-3.094,4.8,0,4.8,3.961,0,7.52-.859,10.365-3.744a28.537,28.537,0,0,0,6.233-10.656,34.865,34.865,0,0,0,1.957-12.542c-.129-4.222-1.042-8.262-4.759-10.73a10.7,10.7,0,0,0-12.763,1.035,2.419,2.419,0,0,0,0,3.394,2.45,2.45,0,0,0,3.394,0Z"/><path class="a" d="M116.738,135.855c3.087,3.021,7.982,3.892,12.122,3.889s9.036-.867,12.124-3.889c2.211-2.165-1.184-5.558-3.394-3.395-.1.1-.606.529-.317.3.269-.212-.385.257-.537.351q-.406.249-.832.461c-.19.1-.384.188-.579.272.321-.139-.042.013-.181.063a18.325,18.325,0,0,1-6.284,1.038,17.9,17.9,0,0,1-6.174-1c-.017-.006-.725-.293-.293-.105-.163-.071-.325-.147-.485-.226-.315-.155-.624-.323-.923-.507-.23-.142-.446-.3-.668-.452.605.413-.037-.053-.184-.2-2.21-2.162-5.607,1.229-3.395,3.395Z"/><path class="a" d="M128.34,112.957a50.075,50.075,0,0,1,1.174,5.369l-.086-.638a3.281,3.281,0,0,1,.02.741l.086-.638a1.82,1.82,0,0,1-.082.333l.242-.573a1.3,1.3,0,0,1-.117.214l.375-.486a1.067,1.067,0,0,1-.176.173l.486-.375a3.452,3.452,0,0,1-.425.225l.573-.242a3.094,3.094,0,0,1-.716.209l.638-.085a2.858,2.858,0,0,1-.673,0l.638.086c-.254-.035-.5-.1-.756-.131a2.657,2.657,0,0,0-1.85.242,2.4,2.4,0,0,0-.861,3.283,2.292,2.292,0,0,0,1.435,1.1c.546.074,1.076.214,1.631.238a5.141,5.141,0,0,0,2.364-.556,3.334,3.334,0,0,0,1.871-2.208,5.683,5.683,0,0,0-.025-2.418c-.293-1.729-.692-3.443-1.137-5.14a2.4,2.4,0,0,0-4.629,1.276Z"/><path class="a" d="M99.77,98.473c-.9,2.913-.313,9.615,5.207,10.186,7.3-.044,7.683-8.147,5.228-11.957C108.194,93.583,102.282,92.286,99.77,98.473Z"/><path class="a" d="M156.938,98.473c.9,2.914.313,9.616-5.207,10.186-7.295-.044-7.684-8.147-5.228-11.957C148.514,93.583,154.426,92.286,156.938,98.473Z"/><path class="a" d="M3.583,223.847c-2.087,3.917-2.9,8.5-3.4,12.861a24.094,24.094,0,0,0,1.4,11.8,19.324,19.324,0,0,0,8.652,9.813,24.989,24.989,0,0,0,14.728,2.093,18.934,18.934,0,0,0,7.534-2.855,24.384,24.384,0,0,0,3.384-2.6c.963-.9,2.422-2.487,2.422-3.865,0-3.089-4.8-3.094-4.8,0v.01l.328-1.211c-4.319,6.455-14.384,7.616-21.01,4.364-6.216-3.051-8.535-10.1-7.931-16.647.35-3.782,1.07-8.03,2.836-11.345,1.452-2.725-2.69-5.153-4.145-2.422Z"/><path class="a" d="M41.78,238.24a1.245,1.245,0,0,0-.05-.2,2.69,2.69,0,0,0-1.1-1.434,1.778,1.778,0,0,0-.893-.285,1.812,1.812,0,0,0-.957.043l-.573.242a2.4,2.4,0,0,0-.861.861l-.242.573a2.423,2.423,0,0,0,0,1.276,1.148,1.148,0,0,1,.05.2,2.69,2.69,0,0,0,1.1,1.434,1.774,1.774,0,0,0,.892.285,1.812,1.812,0,0,0,.957-.043l.574-.242a2.416,2.416,0,0,0,.861-.861l.242-.573a2.423,2.423,0,0,0,0-1.276Z"/><path class="a" d="M247.843,226.269a29.884,29.884,0,0,1,2.705,10.126,21.856,21.856,0,0,1-.726,9.572,14.708,14.708,0,0,1-5.649,7.5c-3.347,2.13-7.518,2.652-11.41,2.4-4.2-.278-8.667-2.41-11.035-5.981-1.7-2.563-5.859-.162-4.145,2.422,5.678,8.562,17.745,10.4,26.759,6.485,7.911-3.434,11.842-12.481,11.174-20.737-.388-4.782-1.249-9.923-3.528-14.2-1.453-2.728-5.6-.306-4.145,2.422Z"/><path class="a" d="M213.841,238.04a1.148,1.148,0,0,0-.05.2,1.823,1.823,0,0,0-.043.957,1.794,1.794,0,0,0,.285.892,2.677,2.677,0,0,0,1.434,1.1l.638.086a2.389,2.389,0,0,0,1.212-.328l.485-.375a2.389,2.389,0,0,0,.618-1.059,1.148,1.148,0,0,1,.05-.2,1.812,1.812,0,0,0,.042-.957,1.783,1.783,0,0,0-.284-.892,2.674,2.674,0,0,0-1.435-1.1l-.638-.086a2.385,2.385,0,0,0-1.211.328l-.486.375a2.4,2.4,0,0,0-.617,1.059Z"/><path class="a" d="M44.082,137.735q0-1.946.02-3.89l.015-1.623c0-.3.026-.607.009-.907-.049-.916.29-.03-.444.31l-1.212.328a22.161,22.161,0,0,1,4.78.364c.468.053.936.11,1.4.168l.743.095c.157.02.991.131.427.055q1.8.243,3.59.516c5.823.882,11.62,1.947,17.385,3.149,13.391,2.79,26.827,6.195,39.514,11.374a86.551,86.551,0,0,1,8.731,4.126c1.338.734,2.651,1.514,3.922,2.358q.841.558,1.655,1.156.175.129.349.261c.568.428-.357-.291.19.149q.407.326.8.662a2.49,2.49,0,0,0,3.394,0,54.484,54.484,0,0,1,6.022-4.072c2.442-1.437,4.969-2.728,7.54-3.918a144.846,144.846,0,0,1,17.32-6.555,254.141,254.141,0,0,1,36.634-8.531c2.917-.464,5.242-.793,8.058-1.119q1.86-.216,3.725-.386a18.392,18.392,0,0,1,3.526-.206l-1.211-.327c-.861-.407-.373-1.591-.451-.731-.025.275,0,.566,0,.842v6.465c0,3.089,4.8,3.094,4.8,0v-6.559c0-1.357-.056-2.641-1.146-3.648-1.305-1.2-3.156-.837-4.76-.7-6.217.52-12.408,1.446-18.548,2.54-15.129,2.694-30.279,6.451-44.537,12.25-7.205,2.93-14.275,6.366-20.366,11.263h3.394c-4.772-4.044-10.435-6.859-16.164-9.278a176.949,176.949,0,0,0-21.339-7.266A305.258,305.258,0,0,0,51.6,128.075c-2.439-.336-4.884-.657-7.338-.859-1.784-.147-3.579-.058-4.543,1.76-.616,1.161-.4,2.76-.409,4.037-.015,1.574-.027,3.148-.028,4.722,0,3.088,4.8,3.093,4.8,0Z"/><path class="a" d="M33.555,238.778c-.014,6.429-.051,12.857-.074,19.286q-.006,1.7-.014,3.394a7.746,7.746,0,0,0,.553,4.032c1.13,1.978,3.123,2.132,5.131,2.377.288.035.839.111.221.025.308.043.615.087.923.132q.927.138,1.852.294c1.427.238,2.85.5,4.271.773,3.571.688,7.128,1.453,10.677,2.25,16.876,3.79,33.664,8.162,50.215,13.186,3.353,1.018,6.7,2.07,10.011,3.206,1.342.46,2.68.934,4.007,1.436q.757.287,1.509.588.409.165.818.335c-.627-.26.054.027.3.133a8.445,8.445,0,0,0,7.249.091c.2-.088.4-.18.593-.267.168-.074,1.059-.447.339-.149q.8-.333,1.615-.651c2.813-1.1,5.674-2.074,8.542-3.015,16.321-5.359,33-9.779,49.718-13.7,6.986-1.639,14.013-3.228,21.111-4.312q.49-.075.981-.145l.43-.06c.368-.052-.611.076-.054.007.613-.076,1.226-.152,1.842-.213,2.048-.2,4.062-.289,5.228-2.318a6.846,6.846,0,0,0,.561-3.607q-.011-1.918-.018-3.838-.02-4.682-.04-9.365-.018-4.953-.043-9.905c-.013-3.088-4.813-3.094-4.8,0q.043,9.54.082,19.079.009,1.8.017,3.589c0,.462-.017.933.008,1.394.065,1.212-.019-.328.462.055-.165-.132-1.181.089-1.386.109-.585.057-1.168.125-1.75.2-6.565.833-13.058,2.237-19.509,3.691-16.577,3.734-33.058,8.1-49.279,13.165a148.471,148.471,0,0,0-16.722,5.953,3.818,3.818,0,0,1-3.366-.2q-1.724-.738-3.481-1.4c-2.784-1.042-5.608-1.979-8.439-2.885-15.925-5.093-32.156-9.331-48.42-13.191-6.9-1.638-13.826-3.224-20.813-4.451-1.217-.213-2.437-.414-3.661-.586-.643-.091-1.288-.179-1.934-.256q-.359-.042-.718-.08c-.436-.045-.71-.144-.117.117-.173-.077,1.309-.2.076.261a5.753,5.753,0,0,0,.006-.759q0-.717.007-1.435.01-1.93.016-3.861.015-4.511.036-9.02.024-4.747.035-9.5c.007-3.089-4.793-3.093-4.8,0Z"/><path class="a" d="M38.525,194.518q.08-21.02.141-42.038.011-3.626.019-7.252a48.222,48.222,0,0,0,.01-5.309c-.1-.933-.136.435-.38.079.043.062.572.017.675.021.661.026,1.323.065,1.983.112,1.422.1,2.841.236,4.259.389,3.979.43,7.005.861,11.034,1.487q6.75,1.047,13.463,2.321c9.606,1.809,19.172,3.886,28.621,6.4,4.267,1.133,8.514,2.356,12.7,3.757,1.854.621,3.7,1.277,5.518,1.992.418.164.834.333,1.249.5.049.02.718.3.229.093.131.056.261.111.391.168.8.349,1.594.708,2.377,1.092,1.188.582,2.312,1.247,3.442,1.93a6.735,6.735,0,0,0,4.257.979,8.742,8.742,0,0,0,3.345-1.273c1.355-.748,2.758-1.407,4.176-2.025q.31-.135.623-.267c-.451.19.26-.107.283-.116.445-.181.891-.362,1.338-.538q1.422-.559,2.859-1.08a258.487,258.487,0,0,1,28.373-8.177c10.036-2.393,20.164-4.462,30.363-6.034,3.988-.614,7.607-1.107,11.748-1.45,1.218-.1,2.437-.184,3.657-.231a10.733,10.733,0,0,0,2.075-.037c-.079.137-.644-.325-.48-.47-.065.058,0,.615,0,.712q0,2.652.011,5.3.043,18.847.111,37.694.018,5.641.037,11.282c.011,3.088,4.811,3.094,4.8,0q-.071-21.267-.132-42.535-.009-3.623-.018-7.243c0-1.834.128-3.73-.041-5.557a4.364,4.364,0,0,0-2.981-3.774c-1.6-.522-3.649-.181-5.3-.072-1.918.126-3.831.309-5.741.527-9.933,1.129-19.794,2.955-29.567,5.04-10.426,2.224-20.809,4.775-30.983,7.969-4.072,1.277-8.117,2.661-12.054,4.312-1.672.7-3.332,1.431-4.937,2.275a9.874,9.874,0,0,1-1.875.985c-.815.21-1.408-.278-2.052-.678a53.152,53.152,0,0,0-9.175-4.268c-3.926-1.5-7.939-2.76-11.974-3.926A371.24,371.24,0,0,0,48.7,136.128c-3.032-.383-6.077-.731-9.13-.883a7.693,7.693,0,0,0-2.524.126,4.406,4.406,0,0,0-3.119,3.871c-.158,1.8-.032,3.652-.036,5.453q-.044,19-.118,37.994-.021,5.915-.043,11.829c-.011,3.089,4.789,3.093,4.8,0Z"/><path class="a" d="M125.517,167.305c0,12.548-.053,25.1-.089,37.646q-.075,25.826-.142,51.65-.024,10.409-.032,20.815c0,3.089,4.8,3.094,4.8,0q0-21.4.089-42.794.069-25.1.142-50.2.021-8.557.032-17.116c0-3.089-4.8-3.094-4.8,0Z"/><path class="a" d="M44.837,210.2c2.717-.917,4.893-2.925,4.875-5.967a9.888,9.888,0,0,0-3.261-6.727c-3.657-3.533-9.143-5.513-14.065-6.47-4.857-.945-10.394-1.391-15.156.255-5.084,1.757-9.236,6.449-11.147,11.473-2.322,6.1-2.678,12.943-2.267,19.4.356,5.613,1.6,11.342,5.143,15.848a15.743,15.743,0,0,0,15.49,5.772,21.422,21.422,0,0,0,4.8-1.5,13.6,13.6,0,0,1,5.127-1.108c2.742-.084,5.691.508,8.366-.3,3.182-.964,5.263-3.668,4.749-7.045-.505-3.312-2.9-5.365-5.893-6.5a30.713,30.713,0,0,0-9.766-2.033,50.42,50.42,0,0,0-11.515,1.513c-3.024.622-1.744,5.25,1.276,4.628a56.137,56.137,0,0,1,8.121-1.309,23.311,23.311,0,0,1,7.834.983c1.494.424,3.58.744,4.622,2.029a3.383,3.383,0,0,1,.642,1.883c-.064.537-.39.846-1.024,1.113-1.866.783-4.475.224-6.544.225a24.6,24.6,0,0,0-4.206.35,25.22,25.22,0,0,0-4.5,1.524c-4.267,1.584-8.95,1.524-12.428-1.7-3.215-2.98-4.619-7.288-5.216-11.527a47.862,47.862,0,0,1,.37-15.966,21.608,21.608,0,0,1,2.369-6.873,16.284,16.284,0,0,1,4.2-4.758,12.031,12.031,0,0,1,4.76-2.052,24.16,24.16,0,0,1,5.995-.269,32.879,32.879,0,0,1,12.364,3.135c2.047.989,4.209,2.232,5.381,4.257a4.531,4.531,0,0,1,.5,1.178c.021.075.107.635.075.3,0,.024-.034.758.026.391a2.25,2.25,0,0,1-.135.487c.148-.34-.259.242-.062.047a2.942,2.942,0,0,1-1.17.677c-2.911.983-1.662,5.62,1.276,4.628Z"/><path class="a" d="M20.187,207.84a29.9,29.9,0,0,1,9.084-.474,38.421,38.421,0,0,1,8.738,1.5c2.491.768,5.333,1.76,7.292,3.538,1.794,1.629,2.068,4.372-.179,5.718-2.647,1.586-.236,5.738,2.423,4.145A8.08,8.08,0,0,0,50.6,211.534c-1.742-3.545-5.84-5.314-9.336-6.614a41.66,41.66,0,0,0-10.851-2.265,35.392,35.392,0,0,0-11.5.556c-3,.736-1.729,5.366,1.276,4.629Z"/><path class="a" d="M19.234,219.985a49.28,49.28,0,0,1,21.113.6c2.329.587,4.669,1.779,5.543,3.942.771,1.909.608,3.34-1.373,4.211a2.417,2.417,0,0,0-.861,3.283,2.461,2.461,0,0,0,3.284.861c3.4-1.493,4.661-5.082,3.9-8.551a10.953,10.953,0,0,0-6.8-7.583,37.928,37.928,0,0,0-11.826-2.23,56.42,56.42,0,0,0-14.259.84,2.423,2.423,0,0,0-1.676,2.952,2.448,2.448,0,0,0,2.952,1.676Z"/><path class="a" d="M212.009,205.575a3.507,3.507,0,0,1-.971-.48c-.12-.1-.339-.426-.26-.244-.2-.463-.156-.37-.109-.878-.028.3.032-.134.039-.164a4.649,4.649,0,0,1,.256-.813,9.4,9.4,0,0,1,3.994-3.876,31.127,31.127,0,0,1,11.362-3.767c3.584-.492,8-.675,11.257.761,3.53,1.555,6.5,5.406,7.732,9.218A45.082,45.082,0,0,1,247,221.377c-.213,4.465-1.011,9.116-3.551,12.89a11,11,0,0,1-10.877,4.928c-2.831-.406-5.244-2-8.038-2.472a45.888,45.888,0,0,0-8.17-.243,5.689,5.689,0,0,1-2.742-.415,1.2,1.2,0,0,1-.848-1.275c.111-1.981,2.047-2.727,3.7-3.227a27.179,27.179,0,0,1,8.114-1.463,48.412,48.412,0,0,1,9.39,1.349,2.458,2.458,0,0,0,2.952-1.676,2.422,2.422,0,0,0-1.676-2.952,58.078,58.078,0,0,0-10.243-1.515,30.623,30.623,0,0,0-9.191,1.448c-2.62.747-5.258,1.81-6.74,4.244a6.69,6.69,0,0,0,.38,7.85c1.856,2.121,4.8,2.487,7.451,2.421,3.26-.082,6.348-.291,9.41,1.024,5.868,2.52,12.452,2.553,17.6-1.548,4.406-3.511,6.578-9.013,7.389-14.448a51.958,51.958,0,0,0-.569-19.41,21.872,21.872,0,0,0-3.655-8.507c-.813-1.041-1.605-2.108-2.506-3.075a18.654,18.654,0,0,0-3.128-2.507c-4.036-2.81-9.778-2.845-14.47-2.325-5.534.613-11.435,2.2-16,5.512-2.362,1.711-4.519,4.1-5,7.084-.567,3.506,1.525,6.044,4.752,7.134,2.933.991,4.192-3.644,1.276-4.628Z"/><path class="a" d="M236.66,203.211a35.394,35.394,0,0,0-11.5-.556,41.643,41.643,0,0,0-10.851,2.265c-3.5,1.3-7.595,3.069-9.336,6.614a8.08,8.08,0,0,0,3.054,10.734c2.656,1.591,5.073-2.557,2.423-4.145-2.245-1.344-1.976-4.088-.179-5.718,1.959-1.778,4.8-2.77,7.292-3.538a38.467,38.467,0,0,1,8.738-1.5,29.866,29.866,0,0,1,9.084.474c3,.736,4.279-3.892,1.276-4.629Z"/><path class="a" d="M237.613,215.357a56.33,56.33,0,0,0-14.259-.84,37.951,37.951,0,0,0-11.826,2.23,10.961,10.961,0,0,0-6.8,7.583c-.76,3.47.5,7.057,3.9,8.551a2.475,2.475,0,0,0,3.283-.861,2.417,2.417,0,0,0-.861-3.283c-1.979-.871-2.15-2.285-1.373-4.211.874-2.164,3.216-3.352,5.544-3.942a49.186,49.186,0,0,1,21.113-.6,2.462,2.462,0,0,0,2.952-1.676,2.422,2.422,0,0,0-1.676-2.952Z"/></svg>