<svg xmlns="http://www.w3.org/2000/svg" width="370.647" height="306.042" viewBox="0 0 370.647 306.042"><defs><style>.a{fill:#211715;}</style></defs><path class="a" d="M88.941,44.808c-6.619,0-13.25.282-19.867.425q-9.1.2-18.206.393l-15.843.348q-3.294.072-6.589.147c-2.178.049-4.638-.22-6.561,1-3.108,1.968-2.894,5.316-2.894,8.515V164.077c0,2.379-.441,5.414.492,7.632a6.211,6.211,0,0,0,5.908,3.759c2.783-.057,5.579-.332,8.357-.5l17.883-1.061q19.834-1.176,39.67-2.355,36.731-2.193,73.457-4.464,13.518-.846,27.033-1.738c2.278-.153,4.581-.121,6.394-1.732a6.818,6.818,0,0,0,2.046-5.445v-6.714q0-22.392,0-44.784,0-23.286,0-46.572,0-4.023,0-8.046c0-.976.009-1.952,0-2.928a6.368,6.368,0,0,0-3.276-5.817c-1.889-.993-4.119-.684-6.175-.643q-2.991.059-5.98.12-8,.162-15.99.328l-18.609.388c-2.57.054-2.579,4.054,0,4q17.135-.359,34.269-.709l6.039-.122c1.359-.027,3.659-.516,4.83.31,1.109.783.892,2.2.891,3.384q0,1.6,0,3.208-.008,20.8-.006,41.607,0,23.53,0,47.061v15.526c0,1.273.1,2.695-1.337,3.264a7.873,7.873,0,0,1-2.311.262l-2.842.191q-6.31.418-12.622.82-33.8,2.16-67.6,4.154-37.363,2.246-74.731,4.446l-8.042.478a4.391,4.391,0,0,1-2.816-.283,2.247,2.247,0,0,1-.934-2.018c-.022-2.089,0-4.18,0-6.269V56.432c0-1.74-.671-5.229,1.287-6.073a7.622,7.622,0,0,1,2.7-.2l2.986-.067,6.808-.152q16.857-.374,33.715-.733c6.149-.132,12.31-.394,18.46-.394,2.574,0,2.578-4,0-4Z"/><path class="a" d="M133.561,29.563a13.255,13.255,0,0,1,3.614,3.334c-.135-.175.222.308.266.369q.188.264.366.531.39.581.745,1.182.674,1.142,1.238,2.342a30.461,30.461,0,0,1,1.594,4.187,22.9,22.9,0,0,1,.8,3.4,2.014,2.014,0,0,0,2.461,1.4,2.052,2.052,0,0,0,1.4-2.461,30.45,30.45,0,0,0-2.882-8.729,20.776,20.776,0,0,0-7.574-9c-2.21-1.332-4.223,2.125-2.019,3.454Z"/><path class="a" d="M115.9,65.583a10.529,10.529,0,0,0,5.069,1.181,8.365,8.365,0,0,0,5.223-1.59,1.8,1.8,0,0,0,.528-1.273,1.833,1.833,0,0,0-.528-1.273,1.855,1.855,0,0,0-2.545,0c.624-.487,0-.025-.2.078-.152.079-.552.207.024.007-.137.047-.27.1-.408.149-.373.12-.773.145-1.142.261.186-.058.313-.037.039-.01-.112.011-.225.021-.337.028-.27.018-.541.025-.812.023-.243,0-.485-.009-.728-.026q-.167-.011-.333-.027l-.189-.021q-.213-.026.176.024c-.036-.056-.466-.084-.547-.1q-.262-.057-.52-.134c-.15-.045-.3-.094-.443-.149-.048-.018-.095-.039-.143-.056-.29-.1.429.2.171.072-.18-.092-.363-.176-.542-.271a1.8,1.8,0,0,0-1.817,3.109Z"/><path class="a" d="M119.788,53.969a22.518,22.518,0,0,1,.531,2.418l-.065-.478a1.437,1.437,0,0,1,.01.334l.064-.479a.765.765,0,0,1-.037.15l.182-.43a.647.647,0,0,1-.053.1l.281-.364a.53.53,0,0,1-.079.078l.365-.282a1.533,1.533,0,0,1-.192.1l.43-.182a1.394,1.394,0,0,1-.323.095l.479-.065a1.229,1.229,0,0,1-.3,0l.478.064c-.274-.038-.544-.086-.819-.123a1.791,1.791,0,0,0-1.273.527,1.8,1.8,0,0,0,0,2.546l.364.281a1.792,1.792,0,0,0,.909.246l.028,0-.478-.064a6.552,6.552,0,0,0,.935.13,3.117,3.117,0,0,0,1.442-.374,2.177,2.177,0,0,0,1.129-1.439,3.461,3.461,0,0,0-.023-1.454c-.135-.772-.311-1.537-.51-2.3a1.858,1.858,0,0,0-.827-1.076,1.837,1.837,0,0,0-1.387-.181,1.817,1.817,0,0,0-1.076.827,1.892,1.892,0,0,0-.182,1.387Z"/><path class="a" d="M107.4,46.913c-.423,1.379-.145,4.55,2.467,4.818,3.451-.023,3.633-3.857,2.469-5.659C111.388,44.6,108.591,43.985,107.4,46.913Z"/><path class="a" d="M133.985,46.9c.425,1.378.151,4.549-2.46,4.821-3.452-.019-3.638-3.852-2.478-5.656C130,44.585,132.794,43.969,133.985,46.9Z"/><path class="a" d="M66.573,151.287c-1.525-.848-1.944-3.349-2.067-4.959a28.927,28.927,0,0,1,.674-6.777q1.318-8.155,3.011-16.244c1.038-4.975,2.167-9.936,3.508-14.839,1.28-4.686,2.588-9.732,6.052-13.34,2.172-2.263,5.165-3.67,8-4.911,3.13-1.372,6.371-2.473,9.588-3.615,2.41-.855,1.372-4.721-1.063-3.857-6.027,2.139-12.578,4.091-17.683,8.083-4.611,3.606-6.645,9.227-8.211,14.658a281.129,281.129,0,0,0-7.118,33.379c-.485,3.025-1.028,5.948-.573,9.011.385,2.595,1.444,5.518,3.865,6.865,2.252,1.252,4.272-2.2,2.019-3.454Z"/><path class="a" d="M82.539,116.86c-.418,6.224-1.064,12.43-1.664,18.638a2.013,2.013,0,0,0,2,2,2.044,2.044,0,0,0,2-2c.6-6.208,1.246-12.414,1.664-18.638a2,2,0,0,0-4,0Z"/><path class="a" d="M150.11,151.65c.2-1.138.384-2.28.57-3.42a1.515,1.515,0,0,0,.035-.8,1.486,1.486,0,0,0-.237-.743,2,2,0,0,0-2.736-.718,1.943,1.943,0,0,0-.92,1.2c-.185,1.14-.369,2.281-.57,3.42a1.511,1.511,0,0,0-.035.8,1.492,1.492,0,0,0,.237.744,2,2,0,0,0,2.736.717,1.958,1.958,0,0,0,.92-1.195Z"/><path class="a" d="M151.641,108.648q-.685,6.779-1.44,13.55a2.012,2.012,0,0,0,2,2,2.047,2.047,0,0,0,2-2q.765-6.769,1.44-13.55a2.014,2.014,0,0,0-2-2,2.045,2.045,0,0,0-2,2Z"/><path class="a" d="M141.794,86.473c2.712,1.09,5.461,2.084,8.161,3.2,2.3.955,4.885,1.924,6.77,3.6a30.606,30.606,0,0,1,2.474,2.5,8.977,8.977,0,0,1,1.547,2.129,22.293,22.293,0,0,1,2.2,5.653,272.794,272.794,0,0,1,6.124,30.973c.467,3.5.835,7,.988,10.523.095,2.188-.312,5.056-2.641,6.022a2.065,2.065,0,0,0-1.4,2.46,2.013,2.013,0,0,0,2.46,1.4,8.718,8.718,0,0,0,5.146-5.694c.909-2.983.363-6.4.066-9.439-.679-6.949-1.882-13.822-3.237-20.666-.98-4.952-1.978-9.9-3.19-14.8a33.3,33.3,0,0,0-2.327-7.038,21.542,21.542,0,0,0-4.047-5.564c-4.759-4.87-11.88-6.648-18.037-9.123a2.013,2.013,0,0,0-2.46,1.4,2.048,2.048,0,0,0,1.4,2.46Z"/><path class="a" d="M111.24,109.827q-4.14-15.47-7.01-31.24a2.017,2.017,0,0,0-2.938-1.2,42.846,42.846,0,0,0-9.736,7.437c-1.173,1.262-3.186,3.365-2.2,5.24A5.691,5.691,0,0,0,91.63,91.95q1.585.993,3.172,1.985L94.4,90.794c-1.53,1.322-3.053,2.652-4.507,4.058a4.775,4.775,0,0,0-1.628,2.425,4.475,4.475,0,0,0,.6,2.8c1.713,3.788,3.523,7.534,5.346,11.269,3.653,7.48,7.459,14.884,11.312,22.262,1.192,2.282,4.645.262,3.454-2.019-3.485-6.673-6.932-13.367-10.261-20.119q-2.431-4.935-4.773-9.915-.614-1.308-1.22-2.619c-.005-.01-.553-1.492-.669-.6.023-.171.872-.853,1-.974,1.35-1.289,2.758-2.516,4.17-3.736a2.019,2.019,0,0,0-.405-3.141l-2.18-1.365-.991-.62a7.678,7.678,0,0,0-.841-.447l.273,1.009.02-.244-.273,1.01c.977-2.1,3.056-3.726,4.826-5.135a48.3,48.3,0,0,1,5.656-3.844l-2.938-1.195q2.868,15.753,7.01,31.24c.665,2.484,4.525,1.43,3.858-1.063Z"/><path class="a" d="M122.73,95.03c-2.532.1-5.07.146-7.605.169a2,2,0,0,0,0,4c2.535-.023,5.073-.067,7.605-.169a2,2,0,0,0,0-4Z"/><path class="a" d="M126.051,106.238c-.2-1.738-.415-3.475-.611-5.214-.068-.6-.135-1.2-.189-1.807-.02-.221-.039-.442-.052-.663a1.63,1.63,0,0,0-.015-.313c-.084-.264-.126.384-.028.139a12.893,12.893,0,0,0,.4-1.8q.241-1.042.494-2.084c.278-1.146.554-2.294.878-3.428.708-2.48-3.151-3.538-3.858-1.063-.7,2.441-1.355,4.957-1.8,7.457a11.84,11.84,0,0,0,.148,3.353c.2,1.808.425,3.614.635,5.421a2.061,2.061,0,0,0,2,2,2.013,2.013,0,0,0,2-2Z"/><path class="a" d="M111.212,90.69c.247,1.511.672,3,1.032,4.484.182.75.366,1.5.509,2.259.024.129.045.26.068.39.048.265-.042-.489-.013-.047.032.492-.112-.11.044-.148a8.994,8.994,0,0,0-.242,1.449q-.219,1.248-.448,2.5-.66,3.624-1.34,7.244a2.055,2.055,0,0,0,1.4,2.46,2.02,2.02,0,0,0,2.461-1.4q.7-3.753,1.387-7.508a38.421,38.421,0,0,0,.724-4.284,13.2,13.2,0,0,0-.634-3.749c-.376-1.563-.828-3.124-1.087-4.712a2.015,2.015,0,0,0-2.461-1.4,2.048,2.048,0,0,0-1.4,2.46Z"/><path class="a" d="M106.093,73.6c-.966,1-1.867,2.066-2.79,3.109a9.212,9.212,0,0,0-2.387,3.566c-.531,1.907.256,3.313,1.167,4.873.99,1.693,2.047,3.352,3.2,4.938a20.17,20.17,0,0,0,4.332,4.687,2,2,0,0,0,2.424-.313c2.583-3.2,5.091-6.626,8.165-9.378a2.014,2.014,0,0,0-.4-3.141,38.275,38.275,0,0,1-6.06-4.319c-1.63-1.312-3.229-2.661-4.818-4.022a2.051,2.051,0,0,0-2.828,0,2.016,2.016,0,0,0,0,2.828c1.645,1.411,3.3,2.807,4.993,4.164a43.72,43.72,0,0,0,6.694,4.8l-.405-3.142c-3.074,2.752-5.582,6.179-8.164,9.379l2.423-.313c-.354-.256.218.2-.1-.083-.156-.137-.31-.274-.459-.417-.306-.293-.6-.6-.876-.92a21.778,21.778,0,0,1-1.46-1.832c-1.051-1.446-2.02-2.952-2.934-4.488-.308-.516-.61-1.036-.9-1.563-.092-.169-.171-.367-.28-.526-.05-.074-.218-.393.018.112.2.433.067-.02.131-.263.223-.844,1.057-1.458,1.649-2.131.823-.936,1.635-1.882,2.5-2.78C110.707,74.569,107.882,71.737,106.093,73.6Z"/><path class="a" d="M147.888,103.588a8.149,8.149,0,0,0,1.222-2.528,3.655,3.655,0,0,0-1-3.066c-1.415-1.752-2.962-3.4-4.5-5.04L143.2,96.1q1.785-.879,3.57-1.753c1.137-.559,2.41-1.149,2.461-2.614.062-1.767-1.5-3.606-2.546-4.907a45.321,45.321,0,0,0-8.555-7.89,2.015,2.015,0,0,0-2.938,1.2c-2.249,7.766-5.075,16.252-7.97,24.22-.88,2.423,2.984,3.467,3.858,1.063q2.292-6.31,4.385-12.69,1.017-3.108,1.982-6.232c.321-1.039.6-2.1.908-3.134.009-.322.036-.354.081-.094q.249-.557.012-.242c.18-.611.423-1.212.6-1.828l-2.938,1.2a48.352,48.352,0,0,1,5.258,4.531,29.384,29.384,0,0,1,2.487,2.733c.284.365.55.746.8,1.137.153.243.3.49.433.744s.134.758.145.2l.273-1.009-.169.226.718-.717c-1.565.9-3.254,1.616-4.871,2.413a2.019,2.019,0,0,0-.405,3.141c1.01,1.076,2.017,2.157,2.992,3.265a13.817,13.817,0,0,0,1.364,1.6c-.159-.13.237-.538-.136-.019-.209.289-.381.638-.563.945-1.32,2.217,2.137,4.231,3.454,2.019Z"/><path class="a" d="M130.935,76.26c.739.911,1.419,1.868,2.116,2.811.594.8,1.487,1.6,1.648,2.568-.028-.17.026.568.015.481-.009-.062.123-.334.061-.221-.078.144-.17.281-.257.42-.32.511-.655,1.013-1,1.511a47.528,47.528,0,0,1-3,4c-.58.686-1.182,1.355-1.826,1.982q-.438.427-.907.823c-.282.238.122-.057-.257.2-.165.11-.328.219-.5.321l2.736.718a31.636,31.636,0,0,0-2.884-4.53,40,40,0,0,0-4.141-5.09l-.405,3.142a45.97,45.97,0,0,0,6.191-4.525c1.151-.9,2.294-1.823,3.4-2.783a10.62,10.62,0,0,0,2.148-2.227c1.367-2.191-2.093-4.2-3.453-2.019-.176.281.394-.4,0-.016-.139.137-.27.282-.41.418-.381.371-.779.722-1.181,1.069-1.086.941-2.207,1.842-3.336,2.73l-.4.315-.242.189c.11-.085.111-.085,0,0q-.435.335-.871.665-.8.61-1.619,1.2a20.347,20.347,0,0,1-2.249,1.527,2.019,2.019,0,0,0-.405,3.141,34.04,34.04,0,0,1,3.662,4.484,31.041,31.041,0,0,1,2.738,4.326,2.021,2.021,0,0,0,2.737.717,18.406,18.406,0,0,0,4.447-4.127,60.067,60.067,0,0,0,3.768-5.056c1.052-1.57,1.778-2.98,1.259-4.972a10.124,10.124,0,0,0-2.019-3.4c-.9-1.217-1.788-2.444-2.741-3.62a2.014,2.014,0,0,0-2.829,0A2.047,2.047,0,0,0,130.935,76.26Z"/><path class="a" d="M96.912,42.819a6.15,6.15,0,0,0-6.725-1.008,5.848,5.848,0,0,0-3.052,3.912,14.242,14.242,0,0,0,2.027,11.246c1.477,2.212,3.831,4.211,6.671,3.851a2.065,2.065,0,0,0,2-2,2.012,2.012,0,0,0-2-2c-1.8.227-2.912-1.2-3.743-2.745a9.479,9.479,0,0,1-.8-1.892,10.432,10.432,0,0,1-.5-2.2,12.991,12.991,0,0,1-.039-1.395,8.452,8.452,0,0,1,.1-1.169,6.545,6.545,0,0,1,.336-1.22c-.107.264.235-.356.3-.494-.184.38-.127.162.023,0,.07-.076.422-.327.067-.09a3.48,3.48,0,0,1,.457-.268c-.328.153.211-.052.288-.07a1.927,1.927,0,0,1,1.764.374,2.045,2.045,0,0,0,2.828,0,2.021,2.021,0,0,0,0-2.829Z"/><path class="a" d="M145.522,45.788a1.9,1.9,0,0,1,1.659-.376c.093.019.7.247.4.1a3.477,3.477,0,0,1,.455.271c-.264-.182-.062-.037.064.093s.28.453.021,0c.054.094.12.182.175.277.014.024.246.542.122.22a7.067,7.067,0,0,1,.329,1.222,1.063,1.063,0,0,1,.049.361c.017.23.035.461.042.692a12.492,12.492,0,0,1-.045,1.511,12.025,12.025,0,0,1-1.337,4.084c-.825,1.512-1.974,2.951-3.764,2.713a2.01,2.01,0,0,0-2,2,2.052,2.052,0,0,0,2,2c4.59.609,7.447-4.319,8.607-8.032,1.051-3.366.96-8.5-2.315-10.646a6.116,6.116,0,0,0-7.287.68,2,2,0,0,0,2.828,2.828Z"/><path class="a" d="M141.914,56.59a24.551,24.551,0,0,1-1.117,3.687q-.084.217-.171.433.1-.237-.027.057c-.1.233-.22.459-.3.7-.094.284.24-.49,0,0-.054.111-.1.224-.157.335a31.362,31.362,0,0,1-2.717,4.492c-2.309,3.254-5.605,6.86-9.551,7.775-2.506.582-1.445,4.439,1.064,3.857,4.967-1.152,8.79-5.28,11.677-9.245a32.132,32.132,0,0,0,2.951-4.8c.188-.385.352-.777.519-1.172.2-.485-.189.407.039-.083.146-.313.273-.636.4-.956a24.646,24.646,0,0,0,1.246-4.015,2.047,2.047,0,0,0-1.4-2.46,2.02,2.02,0,0,0-2.461,1.4Z"/><path class="a" d="M93.691,57.428c2.092,9.3,9.081,19.445,19.115,20.989a2.064,2.064,0,0,0,2.46-1.4,2.014,2.014,0,0,0-1.4-2.46c-8.742-1.345-14.5-10.123-16.321-18.2-.564-2.51-4.422-1.447-3.857,1.064Z"/><path class="a" d="M116.66,24.86a6.188,6.188,0,0,1,.352-1.168l-.2.478a6.964,6.964,0,0,1,.879-1.506l-.312.4a7.662,7.662,0,0,1,1.326-1.331l-.405.313a8.037,8.037,0,0,1,.99-.655,2,2,0,1,0-2.019-3.454A8.981,8.981,0,0,0,112.8,23.8a2.14,2.14,0,0,0,.2,1.541,2,2,0,0,0,2.737.718,1.983,1.983,0,0,0,.919-1.2Z"/><path class="a" d="M123.5,27.03c.228-.215.462-.424.7-.622.061-.05.125-.1.185-.148-.41.353-.18.139-.075.062q.192-.141.39-.275a13.426,13.426,0,0,1,1.717-.989c.146-.071.293-.137.44-.2.246-.111-.062.034-.142.06.076-.025.151-.062.226-.091q.454-.177.92-.322a14.248,14.248,0,0,1,2.022-.467,2,2,0,0,0,1.195-.919,2.04,2.04,0,0,0,.2-1.541,2.017,2.017,0,0,0-.919-1.2,2.308,2.308,0,0,0-1.541-.2,15.493,15.493,0,0,0-8.152,4.025,2.017,2.017,0,0,0,0,2.828,2.04,2.04,0,0,0,2.828,0Z"/><path class="a" d="M150.786,42.4a31.28,31.28,0,0,0-2.16-22.765,21.711,21.711,0,0,0-7.78-8.5,8.341,8.341,0,0,1-1.966-1.444,14.132,14.132,0,0,0-1.792-1.648,18.791,18.791,0,0,0-4.552-2.578c-6.545-2.676-14.09-2.348-20.837-.658-7.222,1.811-13.961,5.725-17.98,12.141C89.153,24.231,88,33.477,89.589,41.828c.48,2.526,4.336,1.457,3.857-1.063a31.518,31.518,0,0,1,2.467-19.547c2.973-5.993,8.272-9.909,14.579-11.915,5.9-1.877,12.463-2.532,18.488-.843a14.4,14.4,0,0,1,7.179,4.175c1.137,1.317,2.869,1.954,4.254,2.991a15.354,15.354,0,0,1,3.291,3.605c4.447,6.452,5.246,14.649,3.225,22.1-.674,2.487,3.184,3.549,3.857,1.063Z"/><path class="a" d="M95.912,45.807A5.931,5.931,0,0,0,99.82,42.1a22.979,22.979,0,0,0,.581-2.567c.222-.962.477-1.916.778-2.855,1.017-3.177,2.649-5.994,5.614-7.447a2.02,2.02,0,0,0,.717-2.737,2.041,2.041,0,0,0-2.736-.717c-3.309,1.622-5.433,4.67-6.79,8A31.8,31.8,0,0,0,96.4,39.136a7.255,7.255,0,0,1-.585,2.141c-.026.041-.292.331-.284.326a3.35,3.35,0,0,1-.427.256c-.362.186.167-.045-.251.091-2.438.792-1.394,4.656,1.063,3.857Z"/><path class="a" d="M291.862,120.775a85.558,85.558,0,0,0-5.234-11.358c-1.721-3-4.847-5.025-7.66-6.929-3.2-2.164-6.527-4.127-9.806-6.165a50.543,50.543,0,0,1-7.831-5.512c-1.887-1.747-4.722,1.075-2.829,2.828,5.057,4.682,11.547,7.767,17.275,11.523,1.36.892,2.714,1.8,4,2.8A11.937,11.937,0,0,1,283,111.137a77.779,77.779,0,0,1,5,10.7,2.06,2.06,0,0,0,2.46,1.4,2.015,2.015,0,0,0,1.4-2.46Z"/><path class="a" d="M291.347,122.72c1.877-1.59,5.148-2.263,6.7.141,1.409,2.184.953,5.035.2,7.356-1.576,4.857-5.688,7.645-10.431,8.97-2.476.692-1.424,4.553,1.063,3.858,5.084-1.421,9.8-4.335,12.186-9.206a16.54,16.54,0,0,0,1.869-8c-.177-2.993-1.405-6.223-4.226-7.659-3.494-1.778-7.335-.707-10.187,1.71a2.015,2.015,0,0,0,0,2.828,2.041,2.041,0,0,0,2.828,0Z"/><path class="a" d="M258.851,113.083c-.832,1.725-1.184,5.947,2.015,6.836,4.311.679,5.383-4.32,4.33-6.926C264.333,110.859,260.978,109.48,258.851,113.083Z"/><path class="a" d="M280.582,166.632c-.571-1.729-1.244-3.421-1.985-5.085-.239-.535-.487-1.065-.74-1.593-.07-.144-.132-.3-.212-.437-.211-.363.272.667-.038-.067-1.551-3.677-5.577-2.139-8.659-2.316a27.3,27.3,0,0,1-9.566-2.287,10.537,10.537,0,0,1-5.53-6.323,38.015,38.015,0,0,1-1.654-11.165,13.543,13.543,0,0,0-.672-4.854,13.364,13.364,0,0,0-2.808-4.215c-.677-.729-1.616-1.536-1.238-2.618.5-1.427,2.125-1.8,3.266-2.525a13.4,13.4,0,0,0,5.028-6.612c2.7-6.785,1.8-14.3,3.529-21.289.617-2.5-3.239-3.566-3.857-1.064-1.581,6.408-1.018,13.124-2.9,19.469-.69,2.32-1.8,4.806-3.943,6.12-1.423.871-2.837,1.436-3.9,2.81a5.771,5.771,0,0,0-1.2,4.8c.732,3.083,4.178,4.526,4.655,7.763.234,1.589.059,3.323.18,4.934a54.066,54.066,0,0,0,.761,6.014,18.265,18.265,0,0,0,4.547,9.6c2.244,2.282,5.32,3.459,8.35,4.291a29.147,29.147,0,0,0,11.376.956c.673-.086.423-.258.733.427.154.34.326.672.485,1.01a46.533,46.533,0,0,1,2.13,5.32c.8,2.432,4.668,1.39,3.857-1.064Z"/><path class="a" d="M317.54,159.91c.774-3.009,3.219-5.342,5.431-7.38,2.158-1.987,4.472-3.8,6.562-5.861a53.047,53.047,0,0,0,9.651-12.924,47.793,47.793,0,0,0,.838-43.541c-5.255-11.2-14.595-20.751-26.433-24.76A47.027,47.027,0,0,0,296,63.073a52.511,52.511,0,0,0-22.09,5.842,35.858,35.858,0,0,0-17.9,22.039,51.07,51.07,0,0,0-1.022,5.333,2.064,2.064,0,0,0,1.4,2.46,2.016,2.016,0,0,0,2.461-1.4A35.561,35.561,0,0,1,264.4,82.317c.169-.248.345-.489.521-.731.042-.059.312-.413.18-.243-.108.141.268-.334.333-.414q.857-1.047,1.8-2.019a34.129,34.129,0,0,1,5.271-4.454,44.752,44.752,0,0,1,18.832-6.922,45.453,45.453,0,0,1,18.815,1.041c10.785,2.966,18.977,10.588,24.568,20.142a44.474,44.474,0,0,1,2.017,40.984,49.064,49.064,0,0,1-8.929,13.017c-3.968,4.158-9,7.326-12.276,12.129a12.857,12.857,0,0,0-1.851,4c-.642,2.494,3.215,3.558,3.858,1.063Z"/><path class="a" d="M257.127,135.849c-.574.181-1.153.346-1.739.483q-.467.11-.937.194c-.134.024-.267.044-.4.066-.415.068.46-.051-.068.009a12.714,12.714,0,0,1-1.712.081c-.282-.006-.56-.031-.841-.051-.432-.031.414.075.02.006-.169-.03-.337-.058-.505-.093a2,2,0,1,0-1.064,3.857,16.54,16.54,0,0,0,8.31-.7,2,2,0,0,0-1.063-3.857Z"/><path class="a" d="M293.841,138.6c1.025,4.515,3.718,8.783,6.484,12.425a40.528,40.528,0,0,0,4.984,5.591c1.04.943,2.174,1.778,3.283,2.637a2.069,2.069,0,0,0,2.829,0,2.014,2.014,0,0,0,0-2.829A40.8,40.8,0,0,1,303.778,149c-2.584-3.375-5.134-7.3-6.08-11.469-.57-2.509-4.427-1.447-3.857,1.063Z"/><path class="a" d="M2,235.132c12.064-1.072,24.136-2.054,36.208-3.032q24.243-1.963,48.493-3.859,26.178-2.06,52.359-4.094,23.325-1.816,46.652-3.641,16.252-1.275,32.5-2.592l2.522-.211c2.547-.214,2.57-4.216,0-4-10.041.846-20.088,1.629-30.134,2.419q-22.692,1.785-45.386,3.546-26.091,2.032-52.18,4.075-24.7,1.938-49.4,3.919c-12.741,1.026-25.483,2.059-38.217,3.169q-1.709.149-3.416.3a2.052,2.052,0,0,0-2,2,2.016,2.016,0,0,0,2,2Z"/><path class="a" d="M268.547,282.338a73.234,73.234,0,0,0,4.116-8.56,69.535,69.535,0,0,0,2.772-10.221c1.613-7.129,3.171-14.323,3.568-21.641.139-2.573-3.861-2.565-4,0-.378,6.962-1.891,13.8-3.426,20.577a72.039,72.039,0,0,1-2.532,9.6,63.389,63.389,0,0,1-3.952,8.224c-1.245,2.255,2.208,4.275,3.454,2.019Z"/><path class="a" d="M317.9,168.078c-13.439,1.381-26.866,3.487-39.531,8.357-3.363,1.293-6.664,2.747-9.9,4.323-2.314,1.126-.288,4.577,2.019,3.454a121.936,121.936,0,0,1,35.06-10.589c4.1-.633,8.226-1.12,12.356-1.545a2.057,2.057,0,0,0,2-2,2.014,2.014,0,0,0-2-2Z"/><path class="a" d="M326.88,167.319c-2.309-3.727-5.633-8.338-10.037-9.715a9.965,9.965,0,0,0-4.321-.01c-2.087.276-4.162.634-6.23,1.031a105.474,105.474,0,0,0-14.3,3.465,60.87,60.87,0,0,0-12.907,6.232,14.194,14.194,0,0,0-4.555,3.988,39.473,39.473,0,0,0-3.058,6.534,2.013,2.013,0,0,0,1.4,2.461,2.052,2.052,0,0,0,2.46-1.4,42.08,42.08,0,0,1,2.313-5.022,8.013,8.013,0,0,1,2.942-2.773,56.837,56.837,0,0,1,11.161-5.694,86.188,86.188,0,0,1,12.757-3.364,67.608,67.608,0,0,1,10.269-1.7,2.237,2.237,0,0,1,1.37.245,9.235,9.235,0,0,1,2.315,1.608,27.625,27.625,0,0,1,4.971,6.13c1.353,2.184,4.815.177,3.454-2.019Z"/><path class="a" d="M261.139,203.955a23.9,23.9,0,0,1,6.8,2.522,18.532,18.532,0,0,1,4.985,4.2,21.79,21.79,0,0,1,5.009,10.84,2.018,2.018,0,0,0,2.46,1.4,2.043,2.043,0,0,0,1.4-2.46,25.692,25.692,0,0,0-6.037-12.6A24.408,24.408,0,0,0,262.2,200.1a2.049,2.049,0,0,0-2.46,1.4,2.02,2.02,0,0,0,1.4,2.46Z"/><path class="a" d="M329.092,173.065a61.149,61.149,0,0,1,11.677,8.015,35.418,35.418,0,0,1,8.1,10.96c2.6,5.445,3.782,11.448,4.693,17.371.092.6.187,1.2.269,1.8-.059-.43.054.485.069.625.093.861.164,1.725.229,2.589.168,2.27.279,4.545.372,6.819.275,6.758.371,13.524.384,20.287.005,2.574,4.005,2.578,4,0-.012-6.375-.1-12.752-.339-19.123a120.026,120.026,0,0,0-.882-12.428c-1.6-11.225-4.6-22.347-12.851-30.568a61.709,61.709,0,0,0-13.7-9.8c-2.25-1.255-4.269,2.2-2.018,3.454Z"/><path class="a" d="M299.653,304.115c.6-12.49,1.91-24.932,2.833-37.4.323-4.359,2.655-8.064,6.971-9.329,4.64-1.359,9.289-2.687,13.931-4.035q15.146-4.4,30.284-8.811c2.052-.6,4.3-1.594,6.462-1.58a6.965,6.965,0,0,1,5.047,2.226c1.466,1.6,1.6,3.408,1.442,5.472q-.318,4.161-.607,8.325c-.659,9.513-1.129,19.039-1.78,28.553-.176,2.569,3.824,2.558,4,0,.607-8.871,1.05-17.751,1.648-26.622q.289-4.3.613-8.591c.206-2.743.4-5.243-.9-7.766a10.947,10.947,0,0,0-12.163-5.269c-4.991,1.214-9.915,2.877-14.847,4.313q-8.144,2.371-16.289,4.74-7.761,2.254-15.526,4.5c-2.4.7-4.78,1.3-6.81,2.839a13.52,13.52,0,0,0-4.319,5.676c-1.2,2.9-1.194,6.036-1.435,9.117-.287,3.675-.6,7.347-.919,11.02-.644,7.532-1.269,15.068-1.633,22.62-.124,2.573,3.876,2.567,4,0Z"/><path class="a" d="M268.468,180.758A39.276,39.276,0,0,0,255,190.929c-3.623,4.475-5.948,9.7-7.832,15.1-4.284,12.277-6.893,25.119-9.79,37.772-1.617,7.058-3.559,13.989-5.87,20.853-.824,2.445,3.038,3.494,3.857,1.063,4.083-12.123,6.613-24.577,9.6-36.994,1.5-6.217,3.076-12.425,5.022-18.519,1.646-5.157,3.538-10.3,6.621-14.8,3.469-5.054,8.441-8.52,13.877-11.2,2.31-1.136.285-4.587-2.019-3.454Z"/><path class="a" d="M137.862,166.126c-.509,1.971-1.043,3.938-1.529,5.915a4.339,4.339,0,0,0,1.17,4.521c1.822,1.612,3.907,2.986,5.819,4.494.823.648,1.649,1.295,2.447,1.974.494.42.468.351.48.943,0,.246-.242.325,0,.268s-.3.021-.409.029c-1.7.132-3.4.239-5.095.353-14.355.96-28.713,1.866-43.068,2.828-2.272.152-4.407.274-6.325-1.195a57.068,57.068,0,0,1-5.38-5.295,10.758,10.758,0,0,1-2.032-2.094c-.3-.606.187-1.663.346-2.294.508-2.028,1.03-4.052,1.5-6.088.583-2.5-3.272-3.573-3.857-1.063-.436,1.873-.915,3.736-1.383,5.6-.522,2.082-1.231,4.227.14,6.147a41.362,41.362,0,0,0,4.715,4.878c1.7,1.694,3.331,3.591,5.568,4.587a13.8,13.8,0,0,0,6.856.805q2.88-.194,5.76-.383,6.267-.415,12.534-.823,11.338-.741,22.679-1.483c2.173-.144,4.347-.285,6.52-.443a9.363,9.363,0,0,0,2.117-.267,4.331,4.331,0,0,0,2.806-4.429c-.1-2.427-1.879-3.628-3.616-5.008-1.144-.908-2.3-1.8-3.455-2.693q-.9-.7-1.807-1.388c-.282-.217-1.218-.754-1.278-1.056a4.271,4.271,0,0,1,.213-.794l.542-2.1.875-3.385c.645-2.493-3.212-3.557-3.857-1.063Z"/><path class="a" d="M158.073,7.033l3.039-3.617A2.139,2.139,0,0,0,161.7,2a2.037,2.037,0,0,0-.586-1.415A2.009,2.009,0,0,0,159.7,0a1.964,1.964,0,0,0-1.414.585L155.244,4.2a2.144,2.144,0,0,0-.586,1.414,2.037,2.037,0,0,0,.586,1.415,2.015,2.015,0,0,0,1.414.585,1.967,1.967,0,0,0,1.415-.585Z"/><path class="a" d="M164.682,23.1l5.2-.115A2.085,2.085,0,0,0,171.3,22.4a2,2,0,0,0-1.414-3.414l-5.2.115a2.081,2.081,0,0,0-1.414.585,2,2,0,0,0,1.414,3.415Z"/><path class="a" d="M120.181,149.888q-6.007.351-12.014.7c-3.96.229-7.981.693-11.946.693-2.574,0-2.578,4,0,4,3.965,0,7.986-.464,11.946-.693q6.006-.346,12.014-.7c2.559-.149,2.576-4.15,0-4Z"/><path class="a" d="M75.381,152.488q-19.291,1.132-38.58,2.3c-2.558.154-2.575,4.155,0,4q19.29-1.161,38.58-2.3c2.558-.15,2.576-4.151,0-4Z"/><path class="a" d="M182.211,146.358q-9.311.536-18.62,1.06a2.045,2.045,0,0,0-2,2,2.018,2.018,0,0,0,2,2q9.31-.528,18.62-1.06a2.045,2.045,0,0,0,2-2,2.018,2.018,0,0,0-2-2Z"/><path class="a" d="M149.391,148.228l-1.832.1-.9.052a3.424,3.424,0,0,0-1.7.319,2.1,2.1,0,0,0-.92,1.2,2.048,2.048,0,0,0,.2,1.541,2,2,0,0,0,2.736.717l.014-.009-.478.2h.007l-.532.071c1.133-.058,2.267-.125,3.4-.19a2.107,2.107,0,0,0,1.414-.586,2,2,0,0,0,0-2.828,2,2,0,0,0-1.414-.586Z"/><path class="a" d="M92.509,153.946c-3.316,2.224-7.248,4.271-11.274,2.718A8.691,8.691,0,0,1,75.6,149.3c-.13-3.3,2.007-5.77,4.831-7.189a21.025,21.025,0,0,1,4.972-1.34,44.778,44.778,0,0,1,5.157-.959c1.181-.117,3.726-.381,4.4.937.93,1.808-1.6,3.126-3.006,3.274-1.857.2-2.869,2.66-1.01,3.727,1.328.762,3.1,1.62,3.664,3.163.533,1.468-1.072,2.334-2.1,3.035-2.115,1.441-.116,4.909,2.019,3.453,2.416-1.648,4.659-3.629,4.1-6.855-.528-3.039-3.181-4.825-5.664-6.25l-1.009,3.727c2.742-.289,5.429-1.52,6.6-4.168a5.518,5.518,0,0,0-2.134-7.1c-2.114-1.211-4.73-1.117-7.059-.793-2.416.337-4.8.9-7.174,1.433-4.608,1.039-8.979,3.98-10.246,8.783-1.306,4.954,1.13,9.926,5.181,12.791a12.34,12.34,0,0,0,8.2,2.206,20.3,20.3,0,0,0,9.2-3.772C96.655,155.972,94.654,152.506,92.509,153.946Z"/><path class="a" d="M155.427,125.74c-1.622-4.838-3.051-9.745-4.544-14.623q-.744-2.428-1.49-4.854a38.57,38.57,0,0,0-1.79-5.62c-1.378-2.8-4.414-1.54-6.714-.934-10.171,2.681-20.365,5.3-30.469,8.226-1.193.346-2.486.592-3.235,1.687a3.808,3.808,0,0,0-.247,3.468q.681,2.319,1.35,4.64,1.907,6.594,3.794,13.2c2.362,8.24,4.7,16.487,7.1,24.714a3.536,3.536,0,0,0,2.689,2.852c1.176.234,2.54-.311,3.681-.6,2.616-.651,5.226-1.329,7.834-2.013,4.68-1.229,9.364-2.456,14.016-3.791,2.469-.709,1.419-4.57-1.064-3.857-3.675,1.055-7.373,2.032-11.068,3.013q-3.541.941-7.091,1.855-1.447.373-2.9.738a10.332,10.332,0,0,0-2.686.661c-.723.46.962-.118.576.527a1.638,1.638,0,0,0-.088-.3,3.823,3.823,0,0,0-.237-.813q-.319-1.1-.638-2.2-.742-2.566-1.48-5.135-1.821-6.341-3.637-12.683-1.845-6.443-3.7-12.883-.759-2.637-1.522-5.274-.318-1.1-.639-2.2a9.273,9.273,0,0,0-.583-1.992c-.033-.054-.043-.274-.088-.3.8.407-1.094,1.124.144.761q.653-.192,1.306-.379,1.593-.459,3.19-.9,3.56-1,7.128-1.957,7.478-2.023,14.97-3.986,3.42-.9,6.84-1.8a2.745,2.745,0,0,0,.588-.156q.078-.349-.639-.172c.074.237.147.474.221.711l.867,2.807q.825,2.679,1.646,5.361c1.56,5.092,3.048,10.214,4.741,15.264.814,2.428,4.679,1.387,3.857-1.063Z"/><path class="a" d="M156.326,132.873a60.976,60.976,0,0,0-7.533-3.477,8.209,8.209,0,0,0-4.452-.758,4.838,4.838,0,0,0-2.928,1.609,10.124,10.124,0,0,0-2.144,6.665,4.369,4.369,0,0,0,1.2,3.044,19.384,19.384,0,0,0,1.839,1.439l-.718-2.736c-1.208,2.567-1.316,5.62.836,7.741a10.475,10.475,0,0,0,2.98,1.868c1.028.494,2.036,1.025,3.079,1.489a2.063,2.063,0,0,0,2.736-.718,2.014,2.014,0,0,0-.717-2.736,44.539,44.539,0,0,1-4.56-2.222,2.311,2.311,0,0,1-1.238-1.47,1.785,1.785,0,0,1,.046-.915c.048-.217.1-.433.168-.645.019-.063.26-.661.124-.373a2.077,2.077,0,0,0-.717-2.737c-.134-.1-.267-.2-.4-.3-.056-.042-.355-.281-.085-.065-.12-.095-.239-.19-.356-.289a2.849,2.849,0,0,0-.3-.263c-.346-.217.248.224.166.254a3.172,3.172,0,0,1-.1-.852,7.338,7.338,0,0,1,.491-2.271,4.941,4.941,0,0,1,.762-1.393c.2-.2-.021-.052.289-.136a1.84,1.84,0,0,1,.87-.083,15.922,15.922,0,0,1,3.048,1.089,54.648,54.648,0,0,1,5.588,2.691c2.266,1.222,4.288-2.23,2.019-3.454Z"/><path class="a" d="M157.245,133.036c-.618-1.768-1.263-3.535-1.791-5.333a7.649,7.649,0,0,0-.2-.872c-.019-.044.032-.313-.006-.333l-.426.456q-.813.543-.212.448c.476.228.992.033,1.476.352a12.672,12.672,0,0,1,3.378,3.992,19.691,19.691,0,0,1,2.334,5.213c.906,3.379.568,6.94.093,10.35-.4,2.853-.519,7.953-4.159,8.5-4.475.679-6.708-3.912-6.454-7.681.173-2.569-3.827-2.559-4,0-.348,5.159,2.539,10.381,7.826,11.488a8.133,8.133,0,0,0,7.507-1.974c1.829-1.87,2.4-4.638,2.819-7.127.807-4.736,1.482-9.685.276-14.422a23.419,23.419,0,0,0-3.212-7.037c-1.3-1.962-3.1-4.448-5.41-5.283-2.242-.81-5.582-.437-5.815,2.494a9.248,9.248,0,0,0,.66,3.545c.464,1.436.962,2.86,1.46,4.284.844,2.414,4.71,1.375,3.857-1.064Z"/><path class="a" d="M57.762,82.513c0-2.719-1.73-5.21-4.662-5.193a6.463,6.463,0,0,0,2.614-4.893,4.843,4.843,0,0,0-5.3-4.65,5.267,5.267,0,0,0-5.3,5.02,5.933,5.933,0,0,0,2.614,4.711c-1.988.025-4.409,2.79-4.409,5.509Z"/><path class="a" d="M63.382,61.485c-8.559.191-17.128.315-25.681.7a2.036,2.036,0,0,0-2,2q.009,9.587.008,19.172a2.025,2.025,0,0,0,2,2c8.556-.2,17.113-.528,25.666-.842a2.034,2.034,0,0,0,2-2c0-6.343-.029-12.687.007-19.029.014-2.575-3.986-2.578-4,0-.036,6.342-.006,12.686-.007,19.029l2-2c-8.553.314-17.11.642-25.666.842l2,2q0-9.586-.008-19.172l-2,2c8.553-.384,17.122-.508,25.681-.7C65.952,65.427,65.961,61.427,63.382,61.485Z"/><path class="a" d="M162.663,14.446c2.033-1.206,4.133-2.3,6.206-3.432A2,2,0,0,0,166.85,7.56c-2.073,1.136-4.173,2.226-6.206,3.433a2,2,0,1,0,2.019,3.453Z"/></svg>